<?xml version="1.0" encoding="UTF-8"?>
<svg id="Capa_1" data-name="Capa 1" xmlns="http://www.w3.org/2000/svg" viewBox="0 0 442 443">
  <defs>
    <style>
      .cls-1 {
        fill: #090f4c;
      }
    </style>
  </defs>
  <path class="cls-1" d="M129.71,190.12c-16.41,0-28.85,12.23-28.85,29.74s11.74,30.14,29.15,30.14c13.73,0,24.17-7.36,26.76-18.7h-8.45c-2.09,7.06-9.15,11.74-18.3,11.74-6.07,0-10.94-1.89-14.62-5.57-3.68-3.78-5.77-8.65-6.07-14.72h48.04c.1-.8.3-3.28.3-4.48,0-16.31-10.84-28.15-27.95-28.15ZM109.32,215.98c1.19-11.54,9.25-19.1,20.49-19.1s19.5,7.96,19.7,19.1h-40.18Z"/>
  <path class="cls-1" d="M313.89,190.26c-12.62,0-22.36,6.96-24.54,17.99h8.55c1.69-6.76,7.55-11.13,16.2-11.13,9.54,0,14.91,5.56,14.91,15.8v.2c-3.08.8-10.14,1.69-18.98,2.19-15.2,1.09-22.36,6.56-22.36,17.19,0,5.27,1.99,9.54,5.86,12.82,3.88,3.18,9.04,4.77,15.5,4.77,8.64,0,14.91-3.28,18.58-8.94.8-1.29,1.09-1.59,1.59-1.59.6,0,.99.5,1.19,1.59.4,1.59.6,4.47.6,7.15h6.16v-35.18c0-14.61-8.45-22.85-23.25-22.85ZM328.99,219.67c0,6.06-1.19,10.63-2.88,14.11-3.48,7.55-9.64,9.54-16.1,9.54-8.35,0-13.91-4.07-13.91-10.93,0-6.46,4.17-9.64,14.41-10.43,9.14-.8,15.6-1.39,18.48-2.48v.2Z"/>
  <g>
    <path class="cls-1" d="M311.8,109.57c-37.35,0-70.46,18.41-90.8,46.6-20.34-28.2-53.45-46.6-90.8-46.6-61.72,0-111.93,50.21-111.93,111.93s50.21,111.93,111.93,111.93c37.35,0,70.46-18.4,90.8-46.6,20.34,28.2,53.45,46.6,90.8,46.6,61.72,0,111.93-50.21,111.93-111.93s-50.21-111.93-111.93-111.93ZM130.19,329.18c-59.37,0-107.68-48.31-107.68-107.68s48.31-107.68,107.68-107.68c36.47,0,68.74,18.24,88.23,46.06-11.71,17.69-18.55,38.87-18.55,61.62s6.84,43.94,18.55,61.62c-19.49,27.82-51.76,46.06-88.23,46.06ZM221,163.73c10.67,16.71,16.88,36.52,16.88,57.77s-6.21,41.07-16.88,57.77c-10.67-16.71-16.88-36.52-16.88-57.77s6.21-41.07,16.88-57.77ZM311.8,329.18c-36.47,0-68.74-18.24-88.23-46.06,11.71-17.69,18.55-38.87,18.55-61.62s-6.84-43.94-18.55-61.62c19.49-27.82,51.76-46.06,88.23-46.06,59.38,0,107.68,48.31,107.68,107.68s-48.31,107.68-107.68,107.68Z"/>
    <path class="cls-1" d="M311.8,333.93c-35.74,0-69.63-17.28-90.8-46.25-21.18,28.98-55.07,46.25-90.8,46.25-61.99,0-112.43-50.44-112.43-112.43s50.43-112.43,112.43-112.43c35.74,0,69.63,17.28,90.8,46.25,21.18-28.98,55.07-46.25,90.8-46.25,61.99,0,112.43,50.44,112.43,112.43s-50.44,112.43-112.43,112.43ZM221,285.97l.41.56c20.96,29.05,54.75,46.4,90.4,46.4,61.44,0,111.43-49.99,111.43-111.43s-49.99-111.43-111.43-111.43c-35.65,0-69.44,17.34-90.4,46.4l-.41.56-.41-.56c-20.96-29.05-54.75-46.4-90.4-46.4-61.44,0-111.43,49.99-111.43,111.43s49.99,111.43,111.43,111.43c35.64,0,69.44-17.34,90.4-46.4l.41-.56ZM311.8,329.68c-35.21,0-68.34-17.3-88.64-46.27l-.2-.28.19-.28c12.08-18.25,18.47-39.46,18.47-61.35s-6.39-43.1-18.47-61.35l-.19-.28.2-.28c20.3-28.98,53.44-46.27,88.64-46.27,59.65,0,108.18,48.53,108.18,108.18s-48.53,108.18-108.18,108.18ZM224.17,283.12c20.13,28.54,52.86,45.57,87.63,45.57,59.1,0,107.18-48.08,107.18-107.18s-48.08-107.18-107.18-107.18c-34.77,0-67.5,17.03-87.63,45.57,12.07,18.35,18.45,39.65,18.45,61.61s-6.38,43.26-18.45,61.62ZM130.19,329.68c-59.65,0-108.18-48.53-108.18-108.18s48.53-108.18,108.18-108.18c35.21,0,68.34,17.3,88.64,46.27l.2.28-.19.28c-12.08,18.25-18.47,39.46-18.47,61.35s6.39,43.1,18.47,61.35l.19.28-.2.28c-20.3,28.97-53.43,46.27-88.64,46.27ZM130.19,114.32c-59.1,0-107.18,48.08-107.18,107.18s48.08,107.18,107.18,107.18c34.77,0,67.5-17.03,87.63-45.57-12.07-18.35-18.45-39.65-18.45-61.62s6.38-43.26,18.45-61.61c-20.13-28.54-52.86-45.57-87.63-45.57ZM221,280.2l-.42-.66c-11.09-17.38-16.96-37.45-16.96-58.04s5.86-40.67,16.96-58.04l.42-.66.42.66c11.09,17.38,16.96,37.45,16.96,58.04s-5.86,40.67-16.96,58.04l-.42.66ZM221,164.66c-10.72,17.06-16.38,36.7-16.38,56.84s5.66,39.78,16.38,56.84c10.72-17.06,16.38-36.7,16.38-56.84s-5.66-39.78-16.38-56.84Z"/>
  </g>
</svg>