<?xml version="1.0" encoding="UTF-8"?>
<svg id="Capa_1" data-name="Capa 1" xmlns="http://www.w3.org/2000/svg" viewBox="0 0 442.54 248.93">
  <defs>
    <style>
      .cls-1 {
        fill: #090f4c;
      }
    </style>
  </defs>
  <path class="cls-1" d="M122.33,90.45c-17.79,0-31.26,13.26-31.26,32.24s12.72,32.67,31.59,32.67c14.88,0,26.2-7.98,29-20.27h-9.16c-2.26,7.65-9.92,12.72-19.84,12.72-6.58,0-11.86-2.05-15.85-6.04-3.99-4.1-6.25-9.38-6.57-15.96h52.07c.11-.86.33-3.56.33-4.85,0-17.68-11.75-30.51-30.3-30.51ZM100.23,118.48c1.29-12.51,10.02-20.7,22.21-20.7s21.13,8.62,21.35,20.7h-43.55Z"/>
  <path class="cls-1" d="M321.94,90.6c-13.68,0-24.23,7.54-26.6,19.49h9.26c1.83-7.32,8.19-12.06,17.56-12.06,10.34,0,16.16,6.03,16.16,17.12v.22c-3.34.86-10.99,1.83-20.57,2.37-16.48,1.18-24.23,7.11-24.23,18.63,0,5.71,2.15,10.34,6.35,13.89,4.2,3.45,9.8,5.17,16.8,5.17,9.37,0,16.16-3.55,20.14-9.69.86-1.4,1.18-1.72,1.72-1.72.65,0,1.08.54,1.29,1.72.43,1.72.65,4.85.65,7.75h6.68v-38.13c0-15.83-9.16-24.77-25.2-24.77ZM338.32,122.48c0,6.57-1.29,11.52-3.12,15.29-3.77,8.19-10.45,10.34-17.45,10.34-9.05,0-15.08-4.42-15.08-11.85,0-7,4.52-10.45,15.62-11.31,9.91-.86,16.91-1.51,20.03-2.69v.22Z"/>
  <path class="cls-1" d="M319.68,3.15c-40.48,0-76.37,19.95-98.42,50.51C199.22,23.1,163.33,3.15,122.85,3.15,55.96,3.15,1.54,57.57,1.54,124.46s54.42,121.32,121.31,121.32c40.48,0,76.37-19.95,98.42-50.51,22.05,30.56,57.94,50.51,98.42,50.51,66.9,0,121.32-54.42,121.32-121.32S386.58,3.15,319.68,3.15ZM122.85,241.18c-64.35,0-116.71-52.36-116.71-116.71S58.5,7.75,122.85,7.75c39.53,0,74.51,19.77,95.63,49.92-12.69,19.17-20.11,42.13-20.11,66.79s7.42,47.62,20.11,66.79c-21.12,30.15-56.1,49.92-95.63,49.92ZM221.27,61.84c11.56,18.11,18.3,39.59,18.3,62.62s-6.73,44.51-18.3,62.62c-11.56-18.11-18.3-39.59-18.3-62.62s6.73-44.51,18.3-62.62ZM319.68,241.18c-39.53,0-74.51-19.77-95.63-49.92,12.69-19.17,20.11-42.13,20.11-66.79s-7.42-47.62-20.11-66.79c21.12-30.15,56.1-49.92,95.63-49.92,64.36,0,116.71,52.36,116.71,116.71s-52.36,116.71-116.71,116.71Z"/>
</svg>