<?xml version="1.0" encoding="UTF-8"?>
<svg id="Capa_1" data-name="Capa 1" xmlns="http://www.w3.org/2000/svg" viewBox="0 0 1018 137">
  <defs>
    <style>
      .cls-1 {
        fill: #090f4c;
      }
    </style>
  </defs>
  <polygon class="cls-1" points="281.28 72.7 316.1 72.7 316.1 65.31 281.28 65.31 281.28 38.57 321.23 38.57 321.23 31.17 272.5 31.17 272.5 108.12 323.21 108.12 323.21 100.72 281.28 100.72 281.28 72.7"/>
  <path class="cls-1" d="M353.45,75.66c-9.37-1.58-13.02-4.24-13.02-9.67s4.74-8.88,12.33-8.88c7.99,0,12.13,3.45,13.42,10.46h8.19c-1.28-10.95-9.08-17.07-21.8-17.07-11.94,0-20.22,6.41-20.22,15.98s5.62,14.11,19.93,16.77c12.04,1.97,15.29,4.54,15.29,10.56,0,5.62-5.43,9.37-13.42,9.37-9.77,0-15.09-4.44-16.38-11.25h-8.48c1.87,11.15,10.75,18.05,24.66,18.05,12.53,0,21.7-7.1,21.7-16.57,0-10.46-5.33-14.6-22.2-17.76Z"/>
  <path class="cls-1" d="M399.98,89.08v-29.99h16.38v-6.81h-16.38v-16.87h-5.72c0,2.96-.69,9.96-1.18,12.23-.49,3.45-2.27,4.64-6.31,4.64h-6.31v6.81h11.44v30.58c0,13.42,5.52,19.04,16.97,19.04,3.16,0,6.81-.49,8.68-1.18v-6.61c-2.27.69-4.64.99-7,.99-7.89,0-10.56-3.75-10.56-12.83Z"/>
  <path class="cls-1" d="M469.39,75.66c0,8.58-1.68,15.29-4.93,20.13-3.26,4.64-8.09,6.91-14.5,6.91-9.37,0-14.5-6.22-14.5-17.17v-33.25h-8.19v33.74c0,15.39,7.79,23.87,21.9,23.87,8.58,0,14.31-3.45,18.55-9.37.79-1.18,1.28-1.38,1.68-1.38.89,0,1.28.59,1.58,2.66.3,1.58.4,4.44.4,6.31h6.12v-55.84h-8.09v23.38Z"/>
  <path class="cls-1" d="M537.26,58.3c0,.99-.3,1.48-.89,1.48-.3,0-.69-.2-1.08-.69-4.44-5.23-11.44-8.58-20.13-8.58-16.57,0-28.91,12.33-28.91,29.7s12.53,29.7,28.61,29.7c9.08,0,15.79-3.35,20.52-9.27.89-.99,1.58-1.48,2.07-1.48.69,0,1.08.69,1.38,2.17.29,2.07.39,5.13.49,6.81h6.02V28.21h-8.09v30.09ZM516.15,102.79c-12.43,0-21.51-9.27-21.51-22.59s9.08-22.69,21.51-22.69,21.51,9.37,21.51,22.69-8.98,22.59-21.51,22.59Z"/>
  <path class="cls-1" d="M564.29,30.09c-3.45,0-6.02,2.47-6.02,5.72s2.56,5.72,6.02,5.72,6.02-2.47,6.02-5.72-2.47-5.72-6.02-5.72Z"/>
  <rect class="cls-1" x="560.24" y="52.28" width="8.19" height="55.84"/>
  <path class="cls-1" d="M610.96,50.51c-17.36,0-30.09,12.43-30.09,29.7s12.73,29.7,30.09,29.7,30.19-12.53,30.19-29.7-12.73-29.7-30.19-29.7ZM610.96,102.79c-12.73,0-21.7-9.27-21.7-22.59s8.98-22.69,21.7-22.69,21.7,9.37,21.7,22.69-8.88,22.59-21.7,22.59Z"/>
  <path class="cls-1" d="M697.91,32.23l-29.4,76.95h9.47l7.89-21.11h35.42l7.89,21.11h9.67l-29-76.95h-11.94ZM688.15,80.97l15.39-41.73,15.39,41.73h-30.78Z"/>
  <path class="cls-1" d="M815.52,51.57c-7.89,0-13.71,3.35-18.55,10.75-.89,1.48-1.38,1.78-2.07,1.78s-1.28-.69-1.97-2.17c-3.35-6.91-9.17-10.36-17.36-10.36s-13.42,3.65-17.76,9.96c-.89,1.09-1.18,1.28-1.68,1.28-.89,0-1.28-.59-1.58-2.66-.3-1.68-.39-4.83-.39-6.81h-6.22v55.84h8.19v-21.9c0-9.37,1.68-16.18,4.93-21.01,3.45-5.03,7.6-7.6,13.42-7.6,8.39,0,13.32,6.12,13.32,17.26v33.25h8.09v-21.9c0-9.37,1.77-16.18,5.03-21.01,3.45-5.03,7.5-7.6,13.32-7.6,8.39,0,13.42,6.12,13.42,17.26v33.25h8.09v-34.53c0-14.3-7.5-23.09-20.22-23.09Z"/>
  <path class="cls-1" d="M872.21,51.57c-12.53,0-22.2,6.91-24.37,17.86h8.48c1.68-6.71,7.5-11.05,16.08-11.05,9.47,0,14.8,5.52,14.8,15.69v.2c-3.06.79-10.06,1.68-18.84,2.17-15.09,1.09-22.2,6.51-22.2,17.07,0,5.23,1.97,9.47,5.82,12.73,3.85,3.16,8.98,4.74,15.39,4.74,8.58,0,14.8-3.26,18.45-8.88.79-1.28,1.09-1.58,1.58-1.58.59,0,.99.49,1.18,1.58.39,1.58.59,4.44.59,7.1h6.12v-34.92c0-14.5-8.39-22.69-23.09-22.69ZM887.2,80.77c0,6.02-1.18,10.56-2.86,14.01-3.45,7.5-9.57,9.47-15.98,9.47-8.29,0-13.81-4.04-13.81-10.85,0-6.41,4.14-9.57,14.31-10.36,9.08-.79,15.49-1.38,18.35-2.47v.2Z"/>
  <path class="cls-1" d="M931.79,51.96c-5.82,0-10.75,2.76-13.81,7.79-.59.89-1.18,1.38-1.68,1.38-.69,0-1.09-.79-1.38-2.27-.3-1.58-.49-4.34-.49-5.52h-6.12v55.84h8.19v-25.55c0-6.61.79-12.23,2.66-16.28,2.47-5.72,6.31-8.58,11.44-8.58,5.52,0,8.58,4.14,8.58,10.46,0,.49-.1,1.09-.1,1.58h7.5c.1-.59.1-1.18.1-1.78,0-10.65-5.72-17.07-14.9-17.07Z"/>
  <path class="cls-1" d="M983.11,51.57c-17.36,0-30.09,12.43-30.09,29.7s12.73,29.7,30.09,29.7,30.19-12.53,30.19-29.7-12.73-29.7-30.19-29.7ZM983.11,103.86c-12.73,0-21.7-9.27-21.7-22.59s8.98-22.69,21.7-22.69,21.7,9.37,21.7,22.69-8.88,22.59-21.7,22.59Z"/>
  <path class="cls-1" d="M65.25,51.59c-8.84,0-15.54,6.59-15.54,16.02s6.32,16.24,15.7,16.24c7.4,0,13.02-3.97,14.42-10.08h-4.56c-1.13,3.81-4.93,6.32-9.86,6.32-3.27,0-5.9-1.02-7.88-3-1.98-2.04-3.11-4.66-3.27-7.93h25.88c.05-.43.16-1.77.16-2.41,0-8.79-5.84-15.17-15.06-15.17ZM54.27,65.53c.64-6.22,4.98-10.29,11.04-10.29s10.51,4.29,10.61,10.29h-21.65Z"/>
  <path class="cls-1" d="M164.48,51.67c-6.8,0-12.05,3.75-13.22,9.69h4.6c.91-3.64,4.07-6,8.73-6,5.14,0,8.03,3,8.03,8.51v.11c-1.66.43-5.46.91-10.23,1.18-8.19.59-12.05,3.53-12.05,9.26,0,2.84,1.07,5.14,3.16,6.91,2.09,1.71,4.87,2.57,8.35,2.57,4.66,0,8.03-1.77,10.01-4.82.43-.7.59-.86.86-.86.32,0,.54.27.64.86.21.86.32,2.41.32,3.85h3.32v-18.95c0-7.87-4.55-12.31-12.53-12.31ZM172.62,67.51c0,3.27-.64,5.73-1.55,7.6-1.87,4.07-5.19,5.14-8.67,5.14-4.5,0-7.49-2.2-7.49-5.89,0-3.48,2.25-5.19,7.76-5.62,4.93-.43,8.41-.75,9.96-1.34v.11Z"/>
  <g>
    <path class="cls-1" d="M163.36,8.19c-20.12,0-37.96,9.92-48.92,25.11-10.96-15.19-28.8-25.11-48.92-25.11-33.25,0-60.31,27.05-60.31,60.31s27.05,60.31,60.31,60.31c20.12,0,37.96-9.92,48.92-25.11,10.96,15.19,28.8,25.11,48.92,25.11,33.25,0,60.31-27.05,60.31-60.31s-27.05-60.31-60.31-60.31ZM65.51,126.52c-31.99,0-58.02-26.03-58.02-58.02S33.52,10.48,65.51,10.48c19.65,0,37.04,9.83,47.54,24.82-6.31,9.53-10,20.94-10,33.2s3.69,23.67,10,33.2c-10.5,14.99-27.89,24.82-47.54,24.82ZM114.43,37.37c5.75,9,9.1,19.68,9.1,31.13s-3.35,22.13-9.1,31.13c-5.75-9-9.1-19.68-9.1-31.13s3.35-22.13,9.1-31.13ZM163.36,126.52c-19.65,0-37.04-9.83-47.54-24.82,6.31-9.53,10-20.94,10-33.2s-3.69-23.67-10-33.2c10.5-14.99,27.89-24.82,47.54-24.82,31.99,0,58.02,26.03,58.02,58.02s-26.03,58.02-58.02,58.02Z"/>
    <path class="cls-1" d="M163.36,129.31c-19.22,0-37.46-9.24-48.92-24.76-11.46,15.52-29.7,24.76-48.92,24.76-33.53,0-60.8-27.28-60.8-60.81S31.98,7.69,65.51,7.69c19.22,0,37.46,9.24,48.92,24.76,11.46-15.52,29.7-24.76,48.92-24.76,33.53,0,60.81,27.28,60.81,60.81s-27.28,60.81-60.81,60.81ZM114.43,102.84l.41.56c11.25,15.59,29.39,24.9,48.52,24.9,32.98,0,59.81-26.83,59.81-59.81s-26.83-59.81-59.81-59.81c-19.13,0-37.27,9.31-48.52,24.9l-.41.56-.41-.56c-11.25-15.59-29.39-24.9-48.52-24.9-32.98,0-59.8,26.83-59.8,59.81s26.83,59.81,59.8,59.81c19.13,0,37.27-9.31,48.52-24.9l.41-.56ZM163.36,127.02c-19.04,0-36.97-9.36-47.95-25.03l-.2-.28.19-.28c6.49-9.79,9.91-21.18,9.91-32.93s-3.43-23.13-9.91-32.93l-.19-.28.2-.28c10.98-15.67,28.9-25.03,47.95-25.03,32.27,0,58.52,26.25,58.52,58.52s-26.25,58.52-58.52,58.52ZM116.43,101.69c10.81,15.24,28.33,24.33,46.93,24.33,31.72,0,57.52-25.8,57.52-57.52s-25.8-57.52-57.52-57.52c-18.61,0-36.12,9.09-46.93,24.33,6.47,9.9,9.89,21.36,9.89,33.19s-3.42,23.3-9.89,33.19ZM65.51,127.02c-32.27,0-58.52-26.25-58.52-58.52S33.24,9.98,65.51,9.98c19.04,0,36.97,9.36,47.95,25.03l.2.28-.19.28c-6.49,9.8-9.91,21.18-9.91,32.93s3.43,23.13,9.91,32.93l.19.28-.2.28c-10.98,15.67-28.9,25.03-47.95,25.03ZM65.51,10.98c-31.71,0-57.52,25.8-57.52,57.52s25.8,57.52,57.52,57.52c18.6,0,36.12-9.09,46.93-24.33-6.47-9.9-9.89-21.36-9.89-33.19s3.42-23.3,9.89-33.19c-10.81-15.24-28.33-24.33-46.93-24.33ZM114.43,100.56l-.42-.66c-6-9.4-9.17-20.26-9.17-31.4s3.17-22,9.17-31.4l.42-.66.42.66c6,9.4,9.17,20.26,9.17,31.4s-3.17,22-9.17,31.4l-.42.66ZM114.43,38.31c-5.63,9.08-8.6,19.5-8.6,30.19s2.97,21.11,8.6,30.19c5.63-9.08,8.6-19.5,8.6-30.19s-2.97-21.11-8.6-30.19Z"/>
  </g>
</svg>